<svg width="43" height="44" viewBox="0 0 43 44" fill="none" xmlns="http://www.w3.org/2000/svg">
<path d="M21.2096 14.5785C17.315 14.5785 14.1367 17.8561 14.1367 21.8724C14.1367 25.8887 17.315 29.1663 21.2096 29.1663C25.1042 29.1663 28.2825 25.8887 28.2825 21.8724C28.2825 17.8561 25.1042 14.5785 21.2096 14.5785ZM42.4229 21.8724C42.4229 18.852 42.4495 15.8589 42.285 12.844C42.1205 9.342 41.3458 6.23401 38.8626 3.67321C36.3741 1.10693 33.3656 0.31352 29.9698 0.143894C27.0409 -0.0257315 24.1385 0.00162756 21.2149 0.00162756C18.286 0.00162756 15.3836 -0.0257315 12.46 0.143894C9.06421 0.31352 6.05041 1.1124 3.56721 3.67321C1.0787 6.23949 0.309329 9.342 0.144844 12.844C-0.0196417 15.8644 0.00688829 18.8575 0.00688829 21.8724C0.00688829 24.8874 -0.0196417 27.8859 0.144844 30.9009C0.309329 34.4029 1.084 37.5108 3.56721 40.0717C6.05571 42.6379 9.06421 43.4313 12.46 43.601C15.3889 43.7706 18.2913 43.7432 21.2149 43.7432C24.1438 43.7432 27.0462 43.7706 29.9698 43.601C33.3656 43.4313 36.3794 42.6325 38.8626 40.0717C41.3511 37.5054 42.1205 34.4029 42.285 30.9009C42.4548 27.8859 42.4229 24.8929 42.4229 21.8724V21.8724ZM21.2096 33.0951C15.1873 33.0951 10.327 28.0829 10.327 21.8724C10.327 15.6619 15.1873 10.6498 21.2096 10.6498C27.2319 10.6498 32.0922 15.6619 32.0922 21.8724C32.0922 28.0829 27.2319 33.0951 21.2096 33.0951ZM32.5379 12.8111C31.1318 12.8111 29.9963 11.6402 29.9963 10.1901C29.9963 8.7401 31.1318 7.56913 32.5379 7.56913C33.944 7.56913 35.0795 8.7401 35.0795 10.1901C35.0799 10.5344 35.0144 10.8755 34.8868 11.1937C34.7593 11.5118 34.5721 11.8009 34.336 12.0444C34.0999 12.2879 33.8195 12.4809 33.511 12.6125C33.2025 12.7441 32.8718 12.8116 32.5379 12.8111V12.8111Z" fill="#414479"/>
</svg>
