<svg width="226" height="428" viewBox="0 0 226 428" fill="none" xmlns="http://www.w3.org/2000/svg">
<rect width="9" height="230.415" rx="4.5" transform="matrix(-1 0 0 1 220.083 196.621)" fill="#FBFBFB"/>
<rect width="8.57143" height="212.903" rx="4.28571" transform="matrix(0 -1 -1 0 220.083 201.229)" fill="#FBFBFB"/>
<rect width="9" height="230.415" rx="4.5" transform="matrix(-1 0 0 1 12.8258 196.621)" fill="#FBFBFB"/>
<rect width="9" height="69.1244" rx="4.5" transform="matrix(-1 0 0 1 117.664 0)" fill="#FBFBFB"/>
<rect width="4" height="44.7619" rx="2" transform="matrix(-1 0 0 1 142 270.353)" fill="#FBFBFB"/>
<rect width="4" height="43.8095" rx="2" transform="matrix(-1 0 0 1 87 271.306)" fill="#FBFBFB"/>
<rect width="4" height="49.9232" rx="2" transform="matrix(-1 0 0 1 114 259.877)" fill="#FBFBFB"/>
<rect width="3.81751" height="30.5868" rx="1.90875" transform="matrix(0.211977 -0.977275 -0.981191 -0.19304 141.206 316.133)" fill="#FBFBFB"/>
<rect width="3.81751" height="30.5868" rx="1.90875" transform="matrix(-0.211977 -0.977275 0.981191 -0.19304 84.4272 316.133)" fill="#FBFBFB"/>
<rect width="3.38627" height="19.1125" rx="1.69313" transform="matrix(-0.57763 -0.816298 -0.831772 0.555118 127.753 252.246)" fill="#FBFBFB"/>
<rect width="3.38627" height="19.1125" rx="1.69313" transform="matrix(0.57763 -0.816298 0.831772 0.555118 96.824 252.246)" fill="#FBFBFB"/>
<rect width="8.57143" height="64.5161" rx="4.28571" transform="matrix(0 -1 -1 0 145 29.4009)" fill="#FBFBFB"/>
<path d="M216 199.401L211.213 178.955L201.133 159.37L189.842 141.321L177.745 124.04L162.423 105.223L146.697 90.2458L129.358 75.2689L112.423 64.9002" stroke="#FBFBFB" stroke-width="9"/>
<path d="M8.5 199.877L16.0512 179.49L26.1319 159.905L37.4222 141.856L49.519 124.574L64.8416 105.757L80.5673 90.7802L97.9061 75.8033L115.648 64.9001" stroke="#FBFBFB" stroke-width="9"/>
<path d="M140.291 272.938L138.14 267.441L135.473 262.84L132.486 258.599L129.285 254.539L125.231 250.119L121.07 246.6L116.483 243.082L112.002 240.646" stroke="#FBFBFB" stroke-width="4"/>
<path d="M85.124 273.126L86.5034 267.567L89.1706 262.965L92.1578 258.725L95.3585 254.665L99.4126 250.244L103.573 246.726L108.161 243.207L112.855 240.646" stroke="#FBFBFB" stroke-width="4"/>
</svg>
