<svg width="43" height="44" viewBox="0 0 43 44" fill="none" xmlns="http://www.w3.org/2000/svg">
<path d="M21.2174 0.125C9.5034 0.125 0.00531006 9.91992 0.00531006 22C0.00531006 34.0801 9.5034 43.875 21.2174 43.875C32.9314 43.875 42.4295 34.0801 42.4295 22C42.4295 9.91992 32.9314 0.125 21.2174 0.125ZM31.4115 16.6143C31.4257 16.8438 31.4257 17.083 31.4257 17.3174C31.4257 24.4853 26.1322 32.7422 16.4589 32.7422C13.4759 32.7422 10.7108 31.8486 8.38125 30.3105C8.80738 30.3594 9.21458 30.3789 9.65018 30.3789C12.1123 30.3789 14.3756 29.5195 16.1795 28.0645C13.8689 28.0156 11.9276 26.4531 11.2648 24.3047C12.0744 24.4268 12.8036 24.4268 13.6369 24.207C12.4472 23.9578 11.3778 23.2914 10.6105 22.3212C9.84316 21.351 9.42521 20.1367 9.42765 18.8848V18.8164C10.1237 19.2217 10.9428 19.4707 11.7998 19.5049C11.0794 19.0097 10.4885 18.3389 10.0797 17.5519C9.67085 16.7649 9.45664 15.886 9.45606 14.9932C9.45606 13.9824 9.71174 13.0596 10.171 12.2588C11.4916 13.9352 13.1394 15.3064 15.0075 16.283C16.8755 17.2597 18.922 17.8201 21.0138 17.9277C20.2704 14.2412 22.9409 11.2578 26.1511 11.2578C27.6663 11.2578 29.0299 11.9121 29.9911 12.9668C31.1795 12.7373 32.3159 12.2783 33.3291 11.6631C32.9361 12.918 32.1123 13.9775 31.0185 14.6465C32.0791 14.5293 33.1019 14.2266 34.0488 13.8018C33.3339 14.8857 32.439 15.8477 31.4115 16.6143Z" fill="#414479"/>
</svg>
